<mxfile host="app.diagrams.net" modified="2023-10-09T02:26:10.103Z" agent="Mozilla/5.0 (Windows NT 10.0; Win64; x64; rv:109.0) Gecko/20100101 Firefox/118.0" etag="9B-hfvU3UCSgm9beVaXo" version="22.0.4" type="github">
  <diagram id="C5RBs43oDa-KdzZeNtuy" name="Page-1">
    <mxGraphModel dx="794" dy="422" grid="1" gridSize="10" guides="1" tooltips="1" connect="1" arrows="1" fold="1" page="1" pageScale="1" pageWidth="827" pageHeight="1169" math="0" shadow="0">
      <root>
        <mxCell id="WIyWlLk6GJQsqaUBKTNV-0" />
        <mxCell id="WIyWlLk6GJQsqaUBKTNV-1" parent="WIyWlLk6GJQsqaUBKTNV-0" />
        <mxCell id="C3U84XjqoFhNZMZAHRep-5" value="1/100" style="shape=parallelogram;perimeter=parallelogramPerimeter;whiteSpace=wrap;html=1;fixedSize=1;" vertex="1" parent="WIyWlLk6GJQsqaUBKTNV-1">
          <mxGeometry x="330" y="150" width="150" height="50" as="geometry" />
        </mxCell>
        <mxCell id="C3U84XjqoFhNZMZAHRep-6" value="PROSES" style="rounded=0;whiteSpace=wrap;html=1;" vertex="1" parent="WIyWlLk6GJQsqaUBKTNV-1">
          <mxGeometry x="350" y="310" width="110" height="60" as="geometry" />
        </mxCell>
        <mxCell id="C3U84XjqoFhNZMZAHRep-7" value="" style="endArrow=classic;html=1;rounded=0;entryX=0.427;entryY=0;entryDx=0;entryDy=0;entryPerimeter=0;" edge="1" parent="WIyWlLk6GJQsqaUBKTNV-1" target="C3U84XjqoFhNZMZAHRep-6">
          <mxGeometry width="50" height="50" relative="1" as="geometry">
            <mxPoint x="394.5" y="200" as="sourcePoint" />
            <mxPoint x="395" y="270" as="targetPoint" />
          </mxGeometry>
        </mxCell>
        <mxCell id="C3U84XjqoFhNZMZAHRep-8" value="PENEBAK ANGKA" style="rhombus;whiteSpace=wrap;html=1;" vertex="1" parent="WIyWlLk6GJQsqaUBKTNV-1">
          <mxGeometry x="340" y="440" width="120" height="80" as="geometry" />
        </mxCell>
        <mxCell id="C3U84XjqoFhNZMZAHRep-10" value="" style="endArrow=classic;html=1;rounded=0;exitX=0.5;exitY=1;exitDx=0;exitDy=0;entryX=0.531;entryY=0;entryDx=0;entryDy=0;entryPerimeter=0;" edge="1" parent="WIyWlLk6GJQsqaUBKTNV-1">
          <mxGeometry width="50" height="50" relative="1" as="geometry">
            <mxPoint x="399.52" y="370" as="sourcePoint" />
            <mxPoint x="399.5" y="440" as="targetPoint" />
          </mxGeometry>
        </mxCell>
        <mxCell id="C3U84XjqoFhNZMZAHRep-11" value="" style="endArrow=classic;html=1;rounded=0;" edge="1" parent="WIyWlLk6GJQsqaUBKTNV-1">
          <mxGeometry width="50" height="50" relative="1" as="geometry">
            <mxPoint x="460" y="479.5" as="sourcePoint" />
            <mxPoint x="530" y="479.5" as="targetPoint" />
          </mxGeometry>
        </mxCell>
        <mxCell id="C3U84XjqoFhNZMZAHRep-17" value="JIKA JAWABAN BENAR" style="shape=parallelogram;perimeter=parallelogramPerimeter;whiteSpace=wrap;html=1;fixedSize=1;" vertex="1" parent="WIyWlLk6GJQsqaUBKTNV-1">
          <mxGeometry x="520" y="450" width="150" height="60" as="geometry" />
        </mxCell>
        <mxCell id="C3U84XjqoFhNZMZAHRep-18" value="" style="endArrow=classic;html=1;rounded=0;" edge="1" parent="WIyWlLk6GJQsqaUBKTNV-1" target="C3U84XjqoFhNZMZAHRep-5">
          <mxGeometry width="50" height="50" relative="1" as="geometry">
            <mxPoint x="405" y="70" as="sourcePoint" />
            <mxPoint x="360" y="120" as="targetPoint" />
          </mxGeometry>
        </mxCell>
        <mxCell id="C3U84XjqoFhNZMZAHRep-19" value="START" style="rounded=1;whiteSpace=wrap;html=1;arcSize=50;" vertex="1" parent="WIyWlLk6GJQsqaUBKTNV-1">
          <mxGeometry x="330" y="10" width="160" height="60" as="geometry" />
        </mxCell>
        <mxCell id="C3U84XjqoFhNZMZAHRep-23" value="JIKA ANGKA LEBIH BESAR" style="shape=parallelogram;perimeter=parallelogramPerimeter;whiteSpace=wrap;html=1;fixedSize=1;" vertex="1" parent="WIyWlLk6GJQsqaUBKTNV-1">
          <mxGeometry x="540" y="640" width="220" height="60" as="geometry" />
        </mxCell>
        <mxCell id="C3U84XjqoFhNZMZAHRep-24" value="JIKA ANGKA LEBIH KECIL" style="shape=parallelogram;perimeter=parallelogramPerimeter;whiteSpace=wrap;html=1;fixedSize=1;" vertex="1" parent="WIyWlLk6GJQsqaUBKTNV-1">
          <mxGeometry x="110" y="640" width="240" height="60" as="geometry" />
        </mxCell>
        <mxCell id="C3U84XjqoFhNZMZAHRep-26" value="" style="endArrow=none;html=1;rounded=0;entryX=0.5;entryY=1;entryDx=0;entryDy=0;" edge="1" parent="WIyWlLk6GJQsqaUBKTNV-1" target="C3U84XjqoFhNZMZAHRep-8">
          <mxGeometry width="50" height="50" relative="1" as="geometry">
            <mxPoint x="400" y="790" as="sourcePoint" />
            <mxPoint x="430" y="600" as="targetPoint" />
          </mxGeometry>
        </mxCell>
        <mxCell id="C3U84XjqoFhNZMZAHRep-28" value="" style="endArrow=none;html=1;rounded=0;" edge="1" parent="WIyWlLk6GJQsqaUBKTNV-1">
          <mxGeometry width="50" height="50" relative="1" as="geometry">
            <mxPoint x="230" y="580" as="sourcePoint" />
            <mxPoint x="650" y="580" as="targetPoint" />
          </mxGeometry>
        </mxCell>
        <mxCell id="C3U84XjqoFhNZMZAHRep-30" value="" style="endArrow=classic;html=1;rounded=0;" edge="1" parent="WIyWlLk6GJQsqaUBKTNV-1">
          <mxGeometry width="50" height="50" relative="1" as="geometry">
            <mxPoint x="229.5" y="580" as="sourcePoint" />
            <mxPoint x="229.5" y="640" as="targetPoint" />
          </mxGeometry>
        </mxCell>
        <mxCell id="C3U84XjqoFhNZMZAHRep-31" value="" style="endArrow=classic;html=1;rounded=0;entryX=0.5;entryY=0;entryDx=0;entryDy=0;" edge="1" parent="WIyWlLk6GJQsqaUBKTNV-1" target="C3U84XjqoFhNZMZAHRep-23">
          <mxGeometry width="50" height="50" relative="1" as="geometry">
            <mxPoint x="649.5" y="580" as="sourcePoint" />
            <mxPoint x="649.5" y="630" as="targetPoint" />
          </mxGeometry>
        </mxCell>
        <mxCell id="C3U84XjqoFhNZMZAHRep-32" value="&lt;div&gt;END&lt;/div&gt;" style="ellipse;whiteSpace=wrap;html=1;aspect=fixed;" vertex="1" parent="WIyWlLk6GJQsqaUBKTNV-1">
          <mxGeometry x="360" y="790" width="80" height="80" as="geometry" />
        </mxCell>
      </root>
    </mxGraphModel>
  </diagram>
</mxfile>
